<svg width="16" height="16" viewBox="0 0 16 16" fill="none" xmlns="http://www.w3.org/2000/svg">
<g clip-path="url(#clip0_403_3415)">
<path d="M7.9999 2.66667C8.73627 2.66667 9.33323 2.06971 9.33323 1.33333C9.33323 0.596954 8.73627 0 7.9999 0C7.26352 0 6.66656 0.596954 6.66656 1.33333C6.66656 2.06971 7.26352 2.66667 7.9999 2.66667Z" fill="black"/>
<path d="M7.9999 9.33353C8.73627 9.33353 9.33323 8.73658 9.33323 8.0002C9.33323 7.26382 8.73627 6.66687 7.9999 6.66687C7.26352 6.66687 6.66656 7.26382 6.66656 8.0002C6.66656 8.73658 7.26352 9.33353 7.9999 9.33353Z" fill="black"/>
<path d="M7.9999 15.9998C8.73627 15.9998 9.33323 15.4029 9.33323 14.6665C9.33323 13.9301 8.73627 13.3331 7.9999 13.3331C7.26352 13.3331 6.66656 13.9301 6.66656 14.6665C6.66656 15.4029 7.26352 15.9998 7.9999 15.9998Z" fill="black"/>
</g>
<defs>
<clipPath id="clip0_403_3415">
<rect width="16" height="16" fill="white"/>
</clipPath>
</defs>
</svg>
