<svg width="14" height="15" viewBox="0 0 14 15" fill="none" xmlns="http://www.w3.org/2000/svg">
<path d="M5.98706 12.4735C7.31543 12.4732 8.60551 12.0285 9.65189 11.2103L12.9418 14.5L14 13.4418L10.7101 10.1521C11.5288 9.10569 11.9738 7.81538 11.9741 6.48674C11.9741 3.1858 9.28818 0.5 5.98706 0.5C2.68595 0.5 0 3.1858 0 6.48674C0 9.78768 2.68595 12.4735 5.98706 12.4735ZM5.98706 1.99669C8.46346 1.99669 10.4774 4.01048 10.4774 6.48674C10.4774 8.96301 8.46346 10.9768 5.98706 10.9768C3.51066 10.9768 1.49677 8.96301 1.49677 6.48674C1.49677 4.01048 3.51066 1.99669 5.98706 1.99669Z" fill="#6F8EA1"/>
</svg>
